PathFileType	4	(X/Y/Z)	/Users/itak/Documents/Research/Walk-IL/dataset/trc/00028_00004.trc
DataRate	CameraRate	NumFrames	NumMarkers	Units	OrigDataRate	OrigDataStartFrame	OrigNumFrames
100.000000	100.000000	4	53	mm	100.000000	158	633
Frame#	Time	RPSI			LPSI			L3			STRN			T10			C7			CLAV			RBAK			LBAK			LSHO			LUPA			LAEL			LAOL			LWTS			LWPS			LFRA			LIFD			LHPS			LHTS			RSHO			RUPA			RAEL			RAOL			RWTS			RWPS			RFRA			RIFD			RHTS			RHPS			RBHD			LFHD			RFHD			LBHD			LHIP			RHIP			RASI			LASI			LKNE			LTHI			LANK			LTIP			LTOE			LMT1			LMT5			LHEE			RKNE			RTHI			RANK			RTIP			RTOE			RMT1			RMT5			RHEE			
		X1	Y1	Z1	X2	Y2	Z2	X3	Y3	Z3	X4	Y4	Z4	X5	Y5	Z5	X6	Y6	Z6	X7	Y7	Z7	X8	Y8	Z8	X9	Y9	Z9	X10	Y10	Z10	X11	Y11	Z11	X12	Y12	Z12	X13	Y13	Z13	X14	Y14	Z14	X15	Y15	Z15	X16	Y16	Z16	X17	Y17	Z17	X18	Y18	Z18	X19	Y19	Z19	X20	Y20	Z20	X21	Y21	Z21	X22	Y22	Z22	X23	Y23	Z23	X24	Y24	Z24	X25	Y25	Z25	X26	Y26	Z26	X27	Y27	Z27	X28	Y28	Z28	X29	Y29	Z29	X30	Y30	Z30	X31	Y31	Z31	X32	Y32	Z32	X33	Y33	Z33	X34	Y34	Z34	X35	Y35	Z35	X36	Y36	Z36	X37	Y37	Z37	X38	Y38	Z38	X39	Y39	Z39	X40	Y40	Z40	X41	Y41	Z41	X42	Y42	Z42	X43	Y43	Z43	X44	Y44	Z44	X45	Y45	Z45	X46	Y46	Z46	X47	Y47	Z47	X48	Y48	Z48	X49	Y49	Z49	X50	Y50	Z50	X51	Y51	Z51	X52	Y52	Z52	X53	Y53	Z53	

159	1.58	-486.7411804199219	1016.635803222656	188.7918548583984	-648.88818359375	1028.077270507812	189.9076690673828	-575.5451049804688	1092.17041015625	194.9915008544922	-530.1327514648438	1263.127563476562	-44.07499694824219	-580.45458984375	1237.165283203125	207.5683898925781	-561.3737182617188	1500.047241210938	132.6852874755859	-529.7229614257812	1391.868774414062	-10.94312477111816	-507.1021728515625	1362.594360351562	214.8343505859375	-662.6557006835938	1469.431518554688	133.0458831787109	-710.46484375	1471.831909179688	16.84445190429688	-813.35595703125	1366.14453125	36.00391387939453	-887.2258911132812	1163.195068359375	37.55694580078125	-816.812255859375	1133.771362304688	111.5810470581055	-847.5758666992188	919.504150390625	-73.142578125	-911.052490234375	902.4326782226562	-13.37400913238525	-909.1812744140625	1052.732788085938	8.27967643737793	-848.8582763671875	740.389892578125	-128.1117095947266	-912.8696899414062	819.5746459960938	-61.79619598388672	-867.2291259765625	833.9324340820312	-113.8371047973633	-376.9913330078125	1460.619873046875	99.74922180175781	-319.6488647460938	1391.694946289062	139.8673706054688	-321.7464904785156	1139.921020507812	233.7237701416016	-414.7581787109375	1114.161743164062	211.7859802246094	-331.1018981933594	868.24609375	126.5377960205078	-286.7887878417969	856.1311645507812	207.0446319580078	-306.3330993652344	1060.742919921875	235.7487182617188	-362.0115356445312	683.8088989257812	120.621955871582	-321.2648620605469	755.5008544921875	107.2914657592773	-289.1126403808594	751.3117065429688	175.1208801269531	-581.4595947265625	1677.492553710938	-0.3716657757759094	-368.9760437011719	1643.441284179688	-33.96495056152344	-435.0702209472656	1653.677001953125	-105.5246887207031	-479.8049621582031	1657.754760742188	100.0448303222656	-763.8604125976562	941.0936279296875	97.46354675292969	-392.7251586914062	897.1204223632812	69.4482421875	-464.7991333007812	939.561767578125	-27.69037246704102	-697.8033447265625	971.7330932617188	-25.84554862976074	-771.9095458984375	501.959716796875	131.1339874267578	-784.6341552734375	643.6864013671875	128.0881958007812	-818.2399291992188	56.68901824951172	361.0700988769531	-810.6701049804688	296.4302368164062	276.4076232910156	-746.886474609375	40.57144546508789	145.968994140625	-734.326171875	51.21395111083984	205.8412933349609	-837.977783203125	37.08151626586914	238.4699096679688	-769.7203369140625	76.62411499023438	431.8799438476562	-418.3182067871094	519.796875	-120.501579284668	-388.7708740234375	754.3123779296875	5.251588821411133	-477.8349609375	42.67914199829102	-240.2122955322266	-424.3711242675781	398.3515930175781	-148.2742767333984	-397.4494323730469	128.2284545898438	-441.6889038085938	-455.0845642089844	112.6808776855469	-405.6259460449219	-382.1353454589844	89.99205017089844	-345.9428100585938	-545.1082763671875	31.82460975646973	-219.7678375244141	
160	1.59	-483.9684448242188	1014.915222167969	178.5925140380859	-646.0260620117188	1026.575439453125	179.4196929931641	-572.7596435546875	1090.681762695312	184.5831604003906	-526.1176147460938	1261.617919921875	-53.98971176147461	-577.7837524414062	1235.466064453125	197.6343383789062	-557.5781860351562	1498.34033203125	122.9512634277344	-525.5045166015625	1390.308349609375	-20.67387771606445	-504.1387329101562	1360.726196289062	205.2472229003906	-659.04345703125	1468.0771484375	122.7477569580078	-706.2244262695312	1470.597778320312	6.296260356903076	-809.3004760742188	1364.898315429688	24.72342681884766	-883.2096557617188	1162.011108398438	25.64334106445312	-813.34521484375	1132.452270507812	100.1506805419922	-842.2734375	918.9651489257812	-85.80006408691406	-906.2236938476562	901.4821166992188	-26.63118934631348	-904.8007202148438	1051.665649414062	-4.224088668823242	-842.7877807617188	740.1050415039062	-141.6251525878906	-907.4674072265625	818.8507690429688	-75.45597076416016	-861.4152221679688	833.5530395507812	-127.0417022705078	-373.1510314941406	1458.565551757812	90.92601776123047	-316.2161560058594	1389.432495117188	131.3113403320312	-319.5780334472656	1137.62060546875	224.9683380126953	-412.5086669921875	1112.1142578125	202.4889068603516	-328.9066162109375	866.0305786132812	117.6675491333008	-285.0544128417969	853.7788696289062	198.4403533935547	-304.3684997558594	1058.412719726562	227.056396484375	-360.2657165527344	681.648681640625	111.4908752441406	-319.2178039550781	753.2655639648438	98.47187805175781	-287.4808959960938	748.9607543945312	166.4817047119141	-576.5394897460938	1675.900390625	-10.48057174682617	-363.9132690429688	1641.450073242188	-42.28248977661133	-429.3562622070312	1651.770751953125	-114.3916625976562	-475.9296569824219	1656.10888671875	90.96511840820312	-760.6927490234375	939.5875854492188	86.75051879882812	-389.850341796875	895.6997680664062	59.06911087036133	-461.9375610351562	938.0526123046875	-38.15589141845703	-695.0001831054688	970.47216796875	-36.51623153686523	-770.8404541015625	501.2421264648438	123.3138122558594	-782.8479614257812	643.1533813476562	119.2507019042969	-818.6751708984375	59.03679275512695	360.3440246582031	-810.2605590820312	297.6927490234375	271.7281188964844	-746.8309326171875	40.53293991088867	145.8577575683594	-734.4951171875	51.60311126708984	205.5497894287109	-838.03857421875	37.17922973632812	237.9875793457031	-770.315673828125	80.32061767578125	430.9272155761719	-414.7774963378906	518.8428955078125	-130.1525268554688	-386.219482421875	753.1742553710938	-5.217235565185547	-471.9835205078125	42.32260513305664	-253.9058990478516	-420.181884765625	397.3336791992188	-158.6115112304688	-388.3976440429688	130.1393585205078	-453.2437438964844	-446.6599426269531	114.0953140258789	-418.3421936035156	-374.7469787597656	90.79901885986328	-357.681884765625	-539.5162353515625	31.10305786132812	-234.5081939697266	
161	1.6	-481.0107116699219	1013.369018554688	168.2180633544922	-642.98291015625	1025.1943359375	168.6120758056641	-569.8048706054688	1089.243286132812	173.9556274414062	-521.8668823242188	1260.285034179688	-64.04629516601562	-574.901611328125	1233.842895507812	187.5823974609375	-553.5386352539062	1496.743530273438	113.1547393798828	-521.0591430664062	1388.91552734375	-30.51456069946289	-500.9126586914062	1358.957641601562	195.5443572998047	-655.1519775390625	1466.840454101562	112.4075469970703	-701.7328491210938	1469.530517578125	-4.274283885955811	-804.993896484375	1363.817749023438	13.46539974212646	-878.9163818359375	1160.993896484375	13.83830833435059	-809.557861328125	1131.32763671875	88.78746795654297	-836.7573852539062	918.5036010742188	-98.17958831787109	-901.1520385742188	900.660400390625	-39.56929016113281	-900.16162109375	1050.74462890625	-16.53654098510742	-836.5114135742188	739.8470458984375	-154.6923522949219	-901.848876953125	818.2167358398438	-88.7254638671875	-855.3905029296875	833.2131958007812	-139.8768157958984	-369.0779418945312	1456.644653320312	82.00254058837891	-312.5357055664062	1387.299926757812	122.6147842407227	-317.1767578125	1135.438598632812	216.0031433105469	-410.0465698242188	1110.193115234375	192.9606781005859	-326.4637756347656	863.9240112304688	108.5781021118164	-283.1041259765625	851.550048828125	189.6280212402344	-302.1881713867188	1056.19482421875	218.1519470214844	-358.2584228515625	679.5985107421875	102.1635208129883	-316.8937377929688	751.153076171875	89.4686279296875	-285.6371765136719	746.731689453125	157.6443939208984	-571.4014892578125	1674.458251953125	-20.61011123657227	-358.647216796875	1639.620483398438	-50.65801239013672	-423.4605407714844	1650.03271484375	-123.3124771118164	-471.8679504394531	1654.632568359375	81.86283111572266	-757.3656616210938	938.1983032226562	75.81627655029297	-386.7146911621094	894.5208129882812	48.56388854980469	-458.7921142578125	936.716796875	-48.78628921508789	-691.9344482421875	969.3085327148438	-47.45196914672852	-769.6983642578125	500.5722961425781	115.0438919067383	-780.9160766601562	642.66943359375	109.9906616210938	-819.1859741210938	61.64487838745117	359.5065307617188	-809.8499755859375	299.1244506835938	266.7008666992188	-746.777587890625	40.51159286499023	145.7633972167969	-734.7046508789062	52.06791305541992	205.228759765625	-838.0989990234375	37.27841949462891	237.4637756347656	-771.0217895507812	84.43450164794922	429.7983703613281	-410.9639587402344	518.0936889648438	-140.0394439697266	-383.2651062011719	752.34130859375	-15.89106178283691	-467.0754699707031	41.63399124145508	-265.3759765625	-415.9911499023438	396.2486572265625	-168.8630981445312	-380.7123718261719	130.2187194824219	-463.1987609863281	-439.5053405761719	113.9993286132812	-429.2635192871094	-368.55712890625	90.35665130615234	-367.6689147949219	-534.7963256835938	30.36054229736328	-246.8173522949219	
162	1.61	-477.8672790527344	1012.009460449219	157.6568603515625	-639.7640991210938	1023.932983398438	157.4690704345703	-566.697998046875	1087.840576171875	163.112060546875	-517.3702392578125	1259.12939453125	-74.24592590332031	-571.7860717773438	1232.299560546875	177.4068756103516	-549.2634887695312	1495.259887695312	103.2953643798828	-516.3768920898438	1387.6904296875	-40.46640014648438	-497.4179992675781	1357.281982421875	185.7209167480469	-650.9906005859375	1465.7197265625	102.0164489746094	-696.9920043945312	1468.626586914062	-14.88047313690186	-800.4281005859375	1362.908203125	2.225518703460693	-874.3631591796875	1160.148803710938	2.144176483154297	-805.44873046875	1130.394653320312	77.48747253417969	-831.0406494140625	918.1217041015625	-110.2782363891602	-895.850830078125	899.96630859375	-52.18463134765625	-895.2819213867188	1049.972778320312	-28.65734672546387	-830.0464477539062	739.6161499023438	-167.3131256103516	-896.0342407226562	817.672607421875	-101.6043472290039	-849.177978515625	832.9144897460938	-152.3423614501953	-364.7794189453125	1454.855224609375	72.98737335205078	-308.6032409667969	1385.305419921875	113.7802810668945	-314.5398254394531	1133.381103515625	206.8435974121094	-407.3564147949219	1108.400024414062	183.2069702148438	-323.7721557617188	861.9320678710938	99.27771759033203	-280.9386291503906	849.4490356445312	180.6135101318359	-299.7896423339844	1054.0966796875	209.0481567382812	-355.9815673828125	677.670654296875	92.63436889648438	-314.2841186523438	749.1748657226562	80.28379821777344	-283.5757446289062	744.6284790039062	148.6103363037109	-566.0518798828125	1673.169921875	-30.74704742431641	-353.1771240234375	1637.966674804688	-59.07950592041016	-417.387939453125	1648.473876953125	-132.2715454101562	-467.6058654785156	1653.308227539062	72.72544860839844	-753.8812255859375	936.9119262695312	64.62807464599609	-383.32421875	893.5774536132812	37.93732070922852	-455.3439636230469	935.5552978515625	-59.58013153076172	-688.58935546875	968.2294311523438	-58.67267608642578	-768.4580688476562	499.940673828125	106.2907333374023	-778.831787109375	642.2239379882812	100.2845077514648	-819.7990112304688	64.53636932373047	358.5274353027344	-809.4409790039062	300.7320861816406	261.299560546875	-746.7459106445312	40.52014923095703	145.6920623779297	-734.96533203125	52.61251068115234	204.88037109375	-838.18017578125	37.38624954223633	236.8858337402344	-771.8558349609375	88.99230194091797	428.4572143554688	-406.8856811523438	517.5038452148438	-150.102783203125	-379.8890075683594	751.7799682617188	-26.73640251159668	-463.1693725585938	40.64739227294922	-274.7076416015625	-411.814208984375	395.077392578125	-179.0050964355469	-374.3334350585938	128.3543090820312	-471.6664123535156	-433.5888977050781	112.3166275024414	-438.5235595703125	-363.5650634765625	88.59207153320312	-375.9807434082031	-531.0387573242188	29.68921279907227	-256.8067626953125	
